<svg xmlns="http://www.w3.org/2000/svg" xmlns:xlink="http://www.w3.org/1999/xlink" viewBox="0 0 660 550" width="660" height="550" preserveAspectRatio="xMidYMid meet" style="width: 100%; height: 100%; transform: translate3d(0px, 0px, 0px); content-visibility: visible;"><defs><clipPath id="__lottie_element_16355"><rect width="660" height="550" x="0" y="0"></rect></clipPath></defs><g clip-path="url(#__lottie_element_16355)"><g transform="matrix(1,0,0,1,330,299)" opacity="0.12" style="display: block;"><g opacity="1" transform="matrix(1,0,0,1,0,0)"><path fill="rgb(128,125,251)" fill-opacity="1" d=" M-154.8159942626953,235.56199645996094 C-154.8159942626953,231.32400512695312 -65.6510009765625,227.88999938964844 44.3380012512207,227.88999938964844 C154.32699584960938,227.88999938964844 243.49000549316406,231.32400512695312 243.49000549316406,235.56199645996094 C243.49000549316406,239.7989959716797 154.32699584960938,243.23399353027344 44.3380012512207,243.23399353027344 C-65.6510009765625,243.23399353027344 -154.8159942626953,239.7989959716797 -154.8159942626953,235.56199645996094z"></path></g><g opacity="1" transform="matrix(1,0,0,1,0,0)"><path fill="rgb(128,125,251)" fill-opacity="1" d=" M-269.3219909667969,220.64199829101562 C-269.3219909667969,219.96299743652344 -268.3210144042969,219.30499267578125 -266.4410095214844,218.67799377441406 C-256.58099365234375,215.39100646972656 -222.5500030517578,212.968994140625 -182.0850067138672,212.968994140625 C-133.90499877929688,212.968994140625 -94.8479995727539,216.40499877929688 -94.8479995727539,220.64199829101562 C-94.8479995727539,224.87899780273438 -133.906005859375,228.31300354003906 -182.0850067138672,228.31300354003906 C-230.26400756835938,228.31300354003906 -269.3219909667969,224.87899780273438 -269.3219909667969,220.64199829101562z"></path></g></g><g transform="matrix(1,0,0,1,330,299)" opacity="1" style="display: block;"><g opacity="1" transform="matrix(0.994131326675415,0.10818002372980118,-0.10818002372980118,0.994131326675415,-15.450485229492188,15.125839233398438)"><g opacity="1" transform="matrix(1,0,0,1,0,0)"><path fill="rgb(233,237,247)" fill-opacity="1" d=" M-219.74000549316406,-237.6739959716797 C-215.14500427246094,-250.30599975585938 -224.80499267578125,-258.52301025390625 -230.9340057373047,-262.9079895019531 C-232.04800415039062,-258.93798828125 -235.60800170898438,-242.60800170898438 -219.74000549316406,-237.6739959716797z"></path></g><g opacity="1" transform="matrix(1,0,0,1,0,0)"><path stroke-linecap="round" stroke-linejoin="round" fill-opacity="0" stroke="rgb(233,237,247)" stroke-opacity="1" stroke-width="2" d=" M-151.30999755859375,-141.17100524902344 C-173.1439971923828,-158.677001953125 -202.70399475097656,-194.14500427246094 -220.65499877929688,-239.52699279785156"></path></g><g opacity="1" transform="matrix(1,0,0,1,0,0)"><path fill="rgb(233,237,247)" fill-opacity="1" d=" M-169.1009979248047,-149.1199951171875 C-195.17100524902344,-156.6719970703125 -204.98199462890625,-139.31399536132812 -212.99099731445312,-126.36799621582031 C-204.83799743652344,-124.66200256347656 -176.89599609375,-116.48100280761719 -169.1009979248047,-149.1199951171875z"></path></g><g opacity="1" transform="matrix(1,0,0,1,0,0)"><path fill="rgb(233,237,247)" fill-opacity="1" d=" M-187.3249969482422,-167.6790008544922 C-206.08700561523438,-178.75599670410156 -217.1840057373047,-167.21800231933594 -225.9949951171875,-158.75399780273438 C-219.9980010986328,-155.79800415039062 -199.90699768066406,-143.85800170898438 -187.3249969482422,-167.6790008544922z"></path></g><g opacity="1" transform="matrix(1,0,0,1,0,0)"><path fill="rgb(233,237,247)" fill-opacity="1" d=" M-202.76699829101562,-191.41799926757812 C-216.21600341796875,-204.4499969482422 -227.8070068359375,-197.04100036621094 -236.8730010986328,-191.74200439453125 C-232.45799255371094,-188.06500244140625 -218.072998046875,-174.04600524902344 -202.76699829101562,-191.41799926757812z"></path></g><g opacity="1" transform="matrix(1,0,0,1,0,0)"><path fill="rgb(233,237,247)" fill-opacity="1" d=" M-215.79100036621094,-215.51100158691406 C-221.56199645996094,-225.6199951171875 -229.76400756835938,-223.20199584960938 -236.0919952392578,-221.60800170898438 C-234.0919952392578,-218.64999389648438 -227.9340057373047,-207.79100036621094 -215.79100036621094,-215.51100158691406z"></path></g><g opacity="1" transform="matrix(1,0,0,1,0,0)"><path fill="rgb(233,237,247)" fill-opacity="1" d=" M-160.81300354003906,-160.6060028076172 C-170.38900756835938,-182.5570068359375 -156.31700134277344,-193.11900329589844 -145.9029998779297,-201.6009979248047 C-143.47999572753906,-194.66000366210938 -133.14300537109375,-171.1439971923828 -160.81300354003906,-160.6060028076172z"></path></g><g opacity="1" transform="matrix(1,0,0,1,0,0)"><path fill="rgb(233,237,247)" fill-opacity="1" d=" M-180.2550048828125,-181.16000366210938 C-191.36099243164062,-198.5800018310547 -180.78799438476562,-209.46800231933594 -173.052001953125,-218.09500122070312 C-170.0590057373047,-212.5070037841797 -158.08900451660156,-193.85499572753906 -180.2550048828125,-181.16000366210938z"></path></g><g opacity="1" transform="matrix(1,0,0,1,0,0)"><path fill="rgb(233,237,247)" fill-opacity="1" d=" M-199.4810028076172,-208.80299377441406 C-203.4810028076172,-222.34100341796875 -194.4810028076172,-227.48800659179688 -187.77099609375,-231.68800354003906 C-186.86000061035156,-227.4550018310547 -182.5290069580078,-212.94900512695312 -199.4810028076172,-208.80299377441406z"></path></g><g opacity="1" transform="matrix(1,0,0,1,0,0)"><path fill="rgb(233,237,247)" fill-opacity="1" d=" M-211.1230010986328,-228.33799743652344 C-214.86300659179688,-235.66400146484375 -210.25599670410156,-239.5749969482422 -206.86199951171875,-242.697998046875 C-205.88900756835938,-240.3699951171875 -201.8560028076172,-232.5240020751953 -211.1230010986328,-228.33799743652344z"></path></g></g><g opacity="1" transform="matrix(0.9974338412284851,-0.07159418612718582,0.07159418612718582,0.9974338412284851,1.606658935546875,12.804702758789062)"><path fill="rgb(255,208,62)" fill-opacity="1" d=" M182.04200744628906,-20.097999572753906 C210.57000732421875,-23.888999938964844 226.9250030517578,-2.497999906539917 226.69500732421875,31.395999908447266 C200.26300048828125,29.673999786376953 172.61700439453125,9.920999526977539 182.04200744628906,-20.097999572753906z"></path></g><g opacity="1" transform="matrix(0.9921818971633911,0.12480032444000244,-0.12480032444000244,0.9921818971633911,-3.8860015869140625,-22.250017166137695)"><g opacity="1" transform="matrix(1,0,0,1,0,0)"><path fill="rgb(237,159,0)" fill-opacity="1" d=" M175.2899932861328,-42.88399887084961 C211.531005859375,-74.41400146484375 253.9929962158203,-59.66699981689453 284.85101318359375,-12.25 C246.45700073242188,9.668000221252441 189.781005859375,7.589000225067139 175.2899932861328,-42.88399887084961z"></path></g><g opacity="1" transform="matrix(1,0,0,1,0,0)"><path stroke-linecap="round" stroke-linejoin="round" fill-opacity="0" stroke="rgb(252,186,6)" stroke-opacity="1" stroke-width="2" d=" M175.2899932861328,-42.88399887084961 C194.40199279785156,-36.340999603271484 242.47999572753906,-26.465999603271484 271.6099853515625,-16.631999969482422"></path></g></g><g opacity="1" transform="matrix(0.9986929297447205,0.05111246183514595,-0.05111246183514595,0.9986929297447205,-1.9576568603515625,-9.520183563232422)"><path fill="rgb(252,186,6)" fill-opacity="1" d=" M188.60699462890625,-41.46099853515625 C183.45899963378906,-43.25699996948242 166.92599487304688,-91.84500122070312 176.01100158691406,-95.61499786376953 C183.08599853515625,-98.5510025024414 186.36000061035156,-91.11199951171875 187.33700561523438,-88.31800079345703 C188.875,-83.91500091552734 191.88099670410156,-73.08499908447266 194.95899963378906,-74.73899841308594 C200.5279998779297,-77.73100280761719 189.427001953125,-104.1500015258789 187.11900329589844,-110.75199890136719 C184.81300354003906,-117.35399627685547 182.125,-130.8040008544922 186.9029998779297,-136.89199829101562 C191.6820068359375,-142.9759979248047 194.31900024414062,-144.89700317382812 197.71499633789062,-133.1179962158203 C201.11199951171875,-121.33999633789062 204.9080047607422,-97.30699920654297 209.75399780273438,-104.84200286865234 C214.6009979248047,-112.37799835205078 207.31500244140625,-130.34500122070312 206.92100524902344,-142.17599487304688 C206.5279998779297,-154.00599670410156 209.79200744628906,-176.66099548339844 217.26100158691406,-171.86099243164062 C223.93899536132812,-167.56900024414062 220.11199951171875,-132.8249969482422 225.8820037841797,-134.83900451660156 C230.4969940185547,-136.45199584960938 227.93800354003906,-146.2449951171875 228.83099365234375,-161.8000030517578 C229.72500610351562,-177.35699462890625 230.7270050048828,-192.02999877929688 240.0189971923828,-192.3509979248047 C247.48199462890625,-192.60800170898438 244.80599975585938,-182.7689971923828 244.42999267578125,-174.375 C244.0570068359375,-165.97999572753906 243.9759979248047,-154.27200317382812 247.93499755859375,-156.93699645996094 C251.89500427246094,-159.6020050048828 249.76199340820312,-200.8209991455078 261.72198486328125,-203.9239959716797 C269.635009765625,-205.97799682617188 267.2919921875,-197.03900146484375 267.406005859375,-187.24899291992188 C267.5199890136719,-177.45700073242188 268.2879943847656,-174.02099609375 270.21099853515625,-174.69400024414062 C272.13299560546875,-175.36599731445312 274.1260070800781,-188.5989990234375 275.02899169921875,-195.89500427246094 C275.92999267578125,-203.1909942626953 279.7179870605469,-213.34800720214844 286.5469970703125,-212.74200439453125 C293.3739929199219,-212.13800048828125 290.7179870605469,-200.593994140625 288.75,-196.55799865722656 C286.7799987792969,-192.52099609375 286.6189880371094,-187.8350067138672 287.82598876953125,-187.26100158691406 C289.0329895019531,-186.68499755859375 296.4809875488281,-199.54400634765625 302.4989929199219,-194.66700744628906 C308.5190124511719,-189.7899932861328 300.20098876953125,-178.1929931640625 292.89300537109375,-175.63999938964844 C285.5889892578125,-173.08599853515625 275.8070068359375,-169.3820037841797 276.739013671875,-166.71800231933594 C277.6700134277344,-164.05099487304688 286.1300048828125,-167.0070037841797 292.7969970703125,-169.33599853515625 C299.4630126953125,-171.6649932861328 302.6440124511719,-171.0679931640625 303.2650146484375,-169.2899932861328 C305.3340148925781,-163.36599731445312 298.4070129394531,-155.33900451660156 293.5350036621094,-153.63699340820312 C288.66400146484375,-151.93499755859375 260.1180114746094,-145.94900512695312 261.4939880371094,-142.01300048828125 C262.8680114746094,-138.07699584960938 273.3399963378906,-141.45199584960938 278.7239990234375,-143.33200073242188 C284.10699462890625,-145.21499633789062 296.6700134277344,-149.60499572753906 298.9779968261719,-143.0030059814453 C301.28399658203125,-136.40199279785156 285.6059875488281,-126.93199920654297 275.1300048828125,-123.98400115966797 C264.65301513671875,-121.03399658203125 247.3179931640625,-117.54100036621094 248.38299560546875,-114.49400329589844 C249.447998046875,-111.4469985961914 263.81500244140625,-111.90899658203125 270.35198974609375,-114.19300079345703 C276.8890075683594,-116.47899627685547 287.3999938964844,-123.85600280761719 290.24200439453125,-115.7300033569336 C293.0799865722656,-107.60399627685547 283.67498779296875,-102.46399688720703 270.8399963378906,-97.9800033569336 C265.47601318359375,-96.10399627685547 252.1540069580078,-91.5999984741211 243.37899780273438,-93.59200286865234 C233.38600158691406,-95.86100006103516 228.03500366210938,-95.35299682617188 227.3939971923828,-93.05500030517578 C226.11599731445312,-88.47799682617188 235.17999267578125,-87.65499877929688 241.77499389648438,-88.53500366210938 C248.3719940185547,-89.41600036621094 268.7049865722656,-93.38700103759766 268.3110046386719,-82.99099731445312 C267.9150085449219,-72.59600067138672 250.7429962158203,-73.57599639892578 243.7969970703125,-73.28399658203125 C236.85000610351562,-72.99400329589844 212.2969970703125,-74.10199737548828 212.01600646972656,-68.73200225830078 C211.73399353027344,-63.362998962402344 224.82899475097656,-66.22899627685547 228.98599243164062,-66.68499755859375 C233.14300537109375,-67.13899993896484 242.04299926757812,-65.33599853515625 240.3249969482422,-61.81399917602539 C238.6060028076172,-58.29199981689453 197.78700256347656,-38.257999420166016 188.60699462890625,-41.46099853515625z"></path></g><g opacity="1" transform="matrix(0.9965987205505371,0.08240775018930435,-0.08240775018930435,0.9965987205505371,-2.052398681640625,17.362083435058594)"><path fill="rgb(187,192,230)" fill-opacity="1" d=" M-213.89199829101562,-17.785999298095703 C-246.52099609375,-25.454999923706055 -255.48199462890625,-55.51100158691406 -241.21400451660156,-92.31900024414062 C-213.14700317382812,-79.51399993896484 -191.21600341796875,-46.571998596191406 -213.89199829101562,-17.785999298095703z"></path></g><g opacity="1" transform="matrix(0.994111180305481,-0.1083647757768631,0.1083647757768631,0.994111180305481,-0.9386444091796875,-23.58673858642578)"><g opacity="1" transform="matrix(1,0,0,1,0,0)"><path fill="rgb(221,226,248)" fill-opacity="1" d=" M-217.20399475097656,-8.241999626159668 C-253.11000061035156,17.507999420166016 -290.7250061035156,0.3409999907016754 -314.8940124511719,-45.7400016784668 C-277.8450012207031,-62.500999450683594 -226.1230010986328,-55.71200180053711 -217.20399475097656,-8.241999626159668z"></path></g><g opacity="1" transform="matrix(1,0,0,1,0,0)"><path stroke-linecap="round" stroke-linejoin="round" fill-opacity="0" stroke="rgb(206,211,248)" stroke-opacity="1" stroke-width="2" d=" M-217.20399475097656,-8.241999626159668 C-234.13999938964844,-15.880999565124512 -277.3190002441406,-29.069000244140625 -303.14801025390625,-40.58599853515625"></path></g></g></g><g transform="matrix(1,0,0,1,330,299)" opacity="1" style="display: block;"><g opacity="1" transform="matrix(1,0,0,1,0,0)"><path stroke-linecap="round" stroke-linejoin="round" fill-opacity="0" stroke="rgb(66,62,175)" stroke-opacity="1" stroke-width="4" d=" M276.1080017089844,-42.25699996948242 C267.364990234375,-81.64199829101562 234.31500244140625,-76.37300109863281 192.82899475097656,-64.81600189208984 C188.7760009765625,-63.6870002746582 184.49200439453125,-63.11000061035156 180.14300537109375,-62.68299865722656"></path></g><g opacity="1" transform="matrix(1,0,0,1,0,0)"><path stroke-linecap="round" stroke-linejoin="round" fill-opacity="0" stroke="rgb(66,62,175)" stroke-opacity="1" stroke-width="4" d=" M-49.53611755371094,159.33299255371094 C-87.91226959228516,185.53875732421875 -142.9488525390625,176.273681640625 -136.9248504638672,139.45068359375 C-131.72885131835938,107.68767547607422 -104.39823150634766,75.93158721923828 -114.1875228881836,42.01430892944336 C-120.986083984375,20.447795867919922 -136.00100708007812,-2.319999933242798 -189.43899536132812,-9.204000473022461"></path></g></g><g transform="matrix(1,0,0,1,330,299)" opacity="1" style="display: block;"><g opacity="1" transform="matrix(1,0,0,1,0,0)"><path fill="rgb(233,237,247)" fill-opacity="1" d=" M-152.93099975585938,-169.20399475097656 C-152.93099975585938,-169.20399475097656 -152.93099975585938,65.99500274658203 -152.93099975585938,65.99500274658203 C-152.93099975585938,76.27799987792969 -144.51800537109375,84.69000244140625 -134.23399353027344,84.69000244140625 C-134.23399353027344,84.69000244140625 171.83599853515625,84.69000244140625 171.83599853515625,84.69000244140625 C182.1199951171875,84.69000244140625 190.5330047607422,76.27799987792969 190.5330047607422,65.99500274658203 C190.5330047607422,65.99500274658203 190.5330047607422,-169.20399475097656 190.5330047607422,-169.20399475097656 C190.5330047607422,-169.20399475097656 -152.93099975585938,-169.20399475097656 -152.93099975585938,-169.20399475097656z"></path></g><g opacity="1" transform="matrix(1,0,0,1,0,0)"><path fill="rgb(246,246,251)" fill-opacity="1" d=" M-148.88400268554688,-169.20399475097656 C-148.88400268554688,-161.38699340820312 -148.88400268554688,65.99500274658203 -148.88400268554688,65.99500274658203 C-148.88400268554688,74.0719985961914 -142.31300354003906,80.64399719238281 -134.23399353027344,80.64399719238281 C-134.23399353027344,80.64399719238281 171.83599853515625,80.64399719238281 171.83599853515625,80.64399719238281 C179.9149932861328,80.64399719238281 186.48599243164062,74.0719985961914 186.48599243164062,65.99500274658203 C186.48599243164062,65.99500274658203 186.48599243164062,-161.38699340820312 186.48599243164062,-169.20399475097656 C172.34500122070312,-169.20399475097656 -144.33799743652344,-169.20399475097656 -148.88400268554688,-169.20399475097656z"></path></g><g opacity="1" transform="matrix(1,0,0,1,0,0)"><g opacity="1" transform="matrix(1,0,0,1,0,0)"><path fill="rgb(128,125,251)" fill-opacity="1" d=" M190.5330047607422,-175.6479949951172 C190.5330047607422,-185.93099975585938 182.1199951171875,-194.34500122070312 171.83599853515625,-194.34500122070312 C171.83599853515625,-194.34500122070312 -134.23399353027344,-194.34500122070312 -134.23399353027344,-194.34500122070312 C-144.51800537109375,-194.34500122070312 -152.93099975585938,-185.93099975585938 -152.93099975585938,-175.6479949951172 C-152.93099975585938,-175.6479949951172 -152.93099975585938,-169.20399475097656 -152.93099975585938,-169.20399475097656 C-152.93099975585938,-169.20399475097656 190.5330047607422,-169.20399475097656 190.5330047607422,-169.20399475097656 C190.5330047607422,-169.20399475097656 190.5330047607422,-175.6479949951172 190.5330047607422,-175.6479949951172z"></path></g><g opacity="1" transform="matrix(1,0,0,1,0,0)"><path fill="rgb(255,255,255)" fill-opacity="1" d=" M-95.40699768066406,-180.86700439453125 C-95.40699768066406,-183.67300415039062 -93.13300323486328,-185.947998046875 -90.32599639892578,-185.947998046875 C-87.51899719238281,-185.947998046875 -85.24500274658203,-183.67300415039062 -85.24500274658203,-180.86700439453125 C-85.24500274658203,-178.05999755859375 -87.51899719238281,-175.78599548339844 -90.32599639892578,-175.78599548339844 C-93.13300323486328,-175.78599548339844 -95.40699768066406,-178.05999755859375 -95.40699768066406,-180.86700439453125z"></path></g><g opacity="1" transform="matrix(1,0,0,1,0,0)"><path fill="rgb(255,255,255)" fill-opacity="1" d=" M-114.05699920654297,-175.1439971923828 C-115.072998046875,-175.1439971923828 -115.48899841308594,-175.86399841308594 -114.98100280761719,-176.7429962158203 C-114.98100280761719,-176.7429962158203 -109.79100036621094,-185.73199462890625 -109.79100036621094,-185.73199462890625 C-109.28299713134766,-186.61199951171875 -108.4520034790039,-186.61199951171875 -107.94499969482422,-185.73199462890625 C-107.94499969482422,-185.73199462890625 -102.75499725341797,-176.7429962158203 -102.75499725341797,-176.7429962158203 C-102.24700164794922,-175.86399841308594 -102.66200256347656,-175.1439971923828 -103.6780014038086,-175.1439971923828 C-103.6780014038086,-175.1439971923828 -114.05699920654297,-175.1439971923828 -114.05699920654297,-175.1439971923828z"></path></g><g opacity="1" transform="matrix(1,0,0,1,0,0)"><path fill="rgb(255,255,255)" fill-opacity="1" d=" M-133.68800354003906,-184.40899658203125 C-133.68800354003906,-185.25599670410156 -132.9949951171875,-185.947998046875 -132.1479949951172,-185.947998046875 C-132.1479949951172,-185.947998046875 -125.06500244140625,-185.947998046875 -125.06500244140625,-185.947998046875 C-124.21800231933594,-185.947998046875 -123.5260009765625,-185.25599670410156 -123.5260009765625,-184.40899658203125 C-123.5260009765625,-184.40899658203125 -123.5260009765625,-177.3260040283203 -123.5260009765625,-177.3260040283203 C-123.5260009765625,-176.47900390625 -124.21800231933594,-175.78599548339844 -125.06500244140625,-175.78599548339844 C-125.06500244140625,-175.78599548339844 -132.1479949951172,-175.78599548339844 -132.1479949951172,-175.78599548339844 C-132.9949951171875,-175.78599548339844 -133.68800354003906,-176.47900390625 -133.68800354003906,-177.3260040283203 C-133.68800354003906,-177.3260040283203 -133.68800354003906,-184.40899658203125 -133.68800354003906,-184.40899658203125z"></path></g></g><g opacity="1" transform="matrix(1,0,0,1,0,0)"><g opacity="1" transform="matrix(1,0,0,1,0,0)"><path fill="rgb(159,156,255)" fill-opacity="1" d=" M141.45399475097656,-178.14100646972656 C141.45399475097656,-176.08399963378906 139.77099609375,-174.40199279785156 137.71499633789062,-174.40199279785156 C137.71499633789062,-174.40199279785156 -66.85900115966797,-174.40199279785156 -66.85900115966797,-174.40199279785156 C-68.91600036621094,-174.40199279785156 -70.5989990234375,-176.08399963378906 -70.5989990234375,-178.14100646972656 C-70.5989990234375,-178.14100646972656 -70.5989990234375,-185.40699768066406 -70.5989990234375,-185.40699768066406 C-70.5989990234375,-187.46400451660156 -68.91600036621094,-189.14700317382812 -66.85900115966797,-189.14700317382812 C-66.85900115966797,-189.14700317382812 137.71499633789062,-189.14700317382812 137.71499633789062,-189.14700317382812 C139.77099609375,-189.14700317382812 141.45399475097656,-187.46400451660156 141.45399475097656,-185.40699768066406 C141.45399475097656,-185.40699768066406 141.45399475097656,-178.14100646972656 141.45399475097656,-178.14100646972656z"></path></g></g></g><g transform="matrix(1,0,0,1,330,299)" opacity="1" style="display: block;"><g opacity="1" transform="matrix(1,0,0,1,0,0)"><path fill="rgb(221,226,248)" fill-opacity="1" d=" M-127.60399627685547,-139.86399841308594 C-127.60399627685547,-143.26499938964844 -124.8479995727539,-146.02099609375 -121.4469985961914,-146.02099609375 C-118.0459976196289,-146.02099609375 -115.28900146484375,-143.26499938964844 -115.28900146484375,-139.86399841308594 C-115.28900146484375,-136.46299743652344 -118.0459976196289,-133.70599365234375 -121.4469985961914,-133.70599365234375 C-124.8479995727539,-133.70599365234375 -127.60399627685547,-136.46299743652344 -127.60399627685547,-139.86399841308594z"></path></g><g opacity="1" transform="matrix(1,0,0,1,0,0)"><path fill="rgb(221,226,248)" fill-opacity="1" d=" M-103.61299896240234,-139.86399841308594 C-103.61299896240234,-143.26499938964844 -100.85600280761719,-146.02099609375 -97.45500183105469,-146.02099609375 C-94.05400085449219,-146.02099609375 -91.2979965209961,-143.26499938964844 -91.2979965209961,-139.86399841308594 C-91.2979965209961,-136.46299743652344 -94.05400085449219,-133.70599365234375 -97.45500183105469,-133.70599365234375 C-100.85600280761719,-133.70599365234375 -103.61299896240234,-136.46299743652344 -103.61299896240234,-139.86399841308594z"></path></g><g opacity="1" transform="matrix(1,0,0,1,0,0)"><path fill="rgb(221,226,248)" fill-opacity="1" d=" M-32.986000061035156,-146.02099609375 C-32.986000061035156,-146.02099609375 -73.46399688720703,-146.02099609375 -73.46399688720703,-146.02099609375 C-76.86499786376953,-146.02099609375 -79.62200164794922,-143.26499938964844 -79.62200164794922,-139.86399841308594 C-79.62200164794922,-136.46299743652344 -76.86499786376953,-133.70599365234375 -73.46399688720703,-133.70599365234375 C-73.46399688720703,-133.70599365234375 -32.986000061035156,-133.70599365234375 -32.986000061035156,-133.70599365234375 C-29.584999084472656,-133.70599365234375 -26.827999114990234,-136.46299743652344 -26.827999114990234,-139.86399841308594 C-26.827999114990234,-143.26499938964844 -29.584999084472656,-146.02099609375 -32.986000061035156,-146.02099609375z"></path></g></g><g transform="matrix(1,0,0,1,330,299)" opacity="1" style="display: block;"><g opacity="1" transform="matrix(1.0836338996887207,0,0,1.0836338996887207,-1.602090835571289,3.7008018493652344)"><g opacity="1" transform="matrix(1,0,0,1,0,0)"><path stroke-linecap="round" stroke-linejoin="round" fill-opacity="0" stroke="rgb(159,156,255)" stroke-opacity="1" stroke-width="4" d=" M19.256999969482422,38.38199996948242 C-8.74899959564209,29.961000442504883 -26.66200065612793,-5.824999809265137 -26.66200065612793,-44.28200149536133 C-26.66200065612793,-82.73100280761719 -8.748000144958496,-118.53199768066406 19.253999710083008,-126.94200134277344"></path></g><g opacity="1" transform="matrix(1,0,0,1,0,0)"><path stroke-linecap="round" stroke-linejoin="round" fill-opacity="0" stroke="rgb(159,156,255)" stroke-opacity="1" stroke-width="4" d=" M19.256999969482422,38.38199996948242 C47.27299880981445,29.965999603271484 65.18699645996094,-5.821000099182129 65.18699645996094,-44.27899932861328 C65.18499755859375,-82.73100280761719 47.27799987792969,-118.53199768066406 19.253999710083008,-126.94200134277344"></path></g><g opacity="1" transform="matrix(1,0,0,1,0,0)"><path stroke-linecap="round" stroke-linejoin="round" fill-opacity="0" stroke="rgb(159,156,255)" stroke-opacity="1" stroke-width="4" d=" M19.253999710083008,-126.94200134277344 C19.253999710083008,-126.94200134277344 19.256999969482422,38.38199996948242 19.256999969482422,38.38199996948242"></path></g><g opacity="1" transform="matrix(1,0,0,1,0,0)"><path stroke-linecap="round" stroke-linejoin="round" fill-opacity="0" stroke="rgb(159,156,255)" stroke-opacity="1" stroke-width="4" d=" M-63.40700149536133,-44.28200149536133 C-63.40700149536133,-44.28200149536133 101.9229965209961,-44.275001525878906 101.9229965209961,-44.275001525878906"></path></g><g opacity="1" transform="matrix(1,0,0,1,0,0)"><path stroke-linecap="round" stroke-linejoin="round" fill-opacity="0" stroke="rgb(159,156,255)" stroke-opacity="1" stroke-width="4" d=" M73.84200286865234,-106.33499908447266 C61.29399871826172,-89.93499755859375 41.512001037597656,-79.3550033569336 19.256999969482422,-79.3550033569336 C-2.990999937057495,-79.3550033569336 -22.774999618530273,-89.93499755859375 -35.32600021362305,-106.34400177001953"></path></g><g opacity="1" transform="matrix(1,0,0,1,0,0)"><path stroke-linecap="round" stroke-linejoin="round" fill-opacity="0" stroke="rgb(159,156,255)" stroke-opacity="1" stroke-width="4" d=" M73.84500122070312,17.78499984741211 C61.29800033569336,1.3830000162124634 41.50699996948242,-9.204999923706055 19.256999969482422,-9.204000473022461 C-2.990999937057495,-9.208999633789062 -22.76799964904785,1.3830000162124634 -35.321998596191406,17.78499984741211"></path></g><g opacity="1" transform="matrix(1,0,0,1,0,0)"><path stroke-linecap="round" stroke-linejoin="round" fill-opacity="0" stroke="rgb(159,156,255)" stroke-opacity="1" stroke-width="4" d=" M-63.40700149536133,-44.28200149536133 C-63.39899826049805,-89.93499755859375 -26.393999099731445,-126.94200134277344 19.253999710083008,-126.94200134277344 C64.91600036621094,-126.9489974975586 101.9229965209961,-89.93499755859375 101.9229965209961,-44.275001525878906 C101.9229965209961,1.3839999437332153 64.91400146484375,38.38800048828125 19.256999969482422,38.38199996948242 C-26.395000457763672,38.3849983215332 -63.4010009765625,1.3830000162124634 -63.40700149536133,-44.28200149536133z"></path></g><g opacity="1" transform="matrix(1,0,0,1,0,0)"><path fill="rgb(255,255,255)" fill-opacity="1" d=" M-7.195000171661377,-44.279998779296875 C-7.192999839782715,-58.89099884033203 4.6479997634887695,-70.73300170898438 19.256000518798828,-70.73300170898438 C33.86899948120117,-70.73500061035156 45.7130012512207,-58.89099884033203 45.7130012512207,-44.27899932861328 C45.7130012512207,-29.66699981689453 33.869998931884766,-17.825000762939453 19.259000778198242,-17.826000213623047 C4.6479997634887695,-17.826000213623047 -7.193999767303467,-29.66699981689453 -7.195000171661377,-44.279998779296875z"></path><path stroke-linecap="butt" stroke-linejoin="miter" fill-opacity="0" stroke-miterlimit="4" stroke="rgb(159,156,255)" stroke-opacity="1" stroke-width="4" d=" M-7.195000171661377,-44.279998779296875 C-7.192999839782715,-58.89099884033203 4.6479997634887695,-70.73300170898438 19.256000518798828,-70.73300170898438 C33.86899948120117,-70.73500061035156 45.7130012512207,-58.89099884033203 45.7130012512207,-44.27899932861328 C45.7130012512207,-29.66699981689453 33.869998931884766,-17.825000762939453 19.259000778198242,-17.826000213623047 C4.6479997634887695,-17.826000213623047 -7.193999767303467,-29.66699981689453 -7.195000171661377,-44.279998779296875z"></path></g></g><g opacity="1" transform="matrix(0.8588886857032776,0,0,0.8588886857032776,2.6987533569335938,-6.244174957275391)"><g opacity="1" transform="matrix(1,0,0,1,0,0)"><path stroke-linecap="butt" stroke-linejoin="round" fill-opacity="0" stroke="rgb(255,90,114)" stroke-opacity="1" stroke-width="4" d=" M9.57800006866455,-53.95899963378906 C9.57800006866455,-53.95899963378906 28.93899917602539,-34.60100173950195 28.93899917602539,-34.60100173950195"></path></g><g opacity="1" transform="matrix(1,0,0,1,0,0)"><path stroke-linecap="butt" stroke-linejoin="round" fill-opacity="0" stroke="rgb(255,90,114)" stroke-opacity="1" stroke-width="4" d=" M9.579999923706055,-34.599998474121094 C9.579999923706055,-34.599998474121094 28.937000274658203,-53.959999084472656 28.937000274658203,-53.959999084472656"></path></g></g><g opacity="1" transform="matrix(1.1411281824111938,0,0,1.1411281824111938,-15.62994384765625,-2.6637935638427734)"><path fill="rgb(255,90,114)" fill-opacity="1" d=" M114.06900024414062,19.334999084472656 C114.06900024414062,19.334999084472656 119.52100372314453,13.881999969482422 119.52100372314453,13.881999969482422 C119.52100372314453,13.881999969482422 116.43599700927734,10.795999526977539 116.43599700927734,10.795999526977539 C116.43599700927734,10.795999526977539 110.98400115966797,16.249000549316406 110.98400115966797,16.249000549316406 C110.98400115966797,16.249000549316406 105.53199768066406,10.79800033569336 105.53199768066406,10.79800033569336 C105.53199768066406,10.79800033569336 102.4469985961914,13.883999824523926 102.4469985961914,13.883999824523926 C102.4469985961914,13.883999824523926 107.89900207519531,19.334999084472656 107.89900207519531,19.334999084472656 C107.89900207519531,19.334999084472656 102.4469985961914,24.78700065612793 102.4469985961914,24.78700065612793 C102.4469985961914,24.78700065612793 105.53299713134766,27.871999740600586 105.53299713134766,27.871999740600586 C105.53299713134766,27.871999740600586 110.98400115966797,22.420000076293945 110.98400115966797,22.420000076293945 C110.98400115966797,22.420000076293945 116.43699645996094,27.871000289916992 116.43699645996094,27.871000289916992 C116.43699645996094,27.871000289916992 119.52200317382812,24.785999298095703 119.52200317382812,24.785999298095703 C119.52200317382812,24.785999298095703 114.06900024414062,19.334999084472656 114.06900024414062,19.334999084472656z"></path></g><g opacity="1" transform="matrix(0.8545140624046326,0,0,0.8545140624046326,-11.820732116699219,-9.91122817993164)"><path fill="rgb(255,90,114)" fill-opacity="1" d=" M-78.0270004272461,-67.83399963378906 C-78.0270004272461,-67.83399963378906 -72.57599639892578,-73.28700256347656 -72.57599639892578,-73.28700256347656 C-72.57599639892578,-73.28700256347656 -75.66000366210938,-76.37300109863281 -75.66000366210938,-76.37300109863281 C-75.66000366210938,-76.37300109863281 -81.11199951171875,-70.91999816894531 -81.11199951171875,-70.91999816894531 C-81.11199951171875,-70.91999816894531 -86.56400299072266,-76.37100219726562 -86.56400299072266,-76.37100219726562 C-86.56400299072266,-76.37100219726562 -89.64900207519531,-73.28500366210938 -89.64900207519531,-73.28500366210938 C-89.64900207519531,-73.28500366210938 -84.1969985961914,-67.83399963378906 -84.1969985961914,-67.83399963378906 C-84.1969985961914,-67.83399963378906 -89.64900207519531,-62.38199996948242 -89.64900207519531,-62.38199996948242 C-89.64900207519531,-62.38199996948242 -86.56300354003906,-59.297000885009766 -86.56300354003906,-59.297000885009766 C-86.56300354003906,-59.297000885009766 -81.11199951171875,-64.7490005493164 -81.11199951171875,-64.7490005493164 C-81.11199951171875,-64.7490005493164 -75.65899658203125,-59.29800033569336 -75.65899658203125,-59.29800033569336 C-75.65899658203125,-59.29800033569336 -72.5739974975586,-62.382999420166016 -72.5739974975586,-62.382999420166016 C-72.5739974975586,-62.382999420166016 -78.0270004272461,-67.83399963378906 -78.0270004272461,-67.83399963378906z"></path></g><g opacity="1" transform="matrix(0.8105430006980896,0,0,0.8105430006980896,27.18708038330078,-13.735633850097656)"><path fill="rgb(255,90,114)" fill-opacity="1" d=" M149.5800018310547,-72.43399810791016 C149.5800018310547,-72.43399810791016 159.85400390625,-82.70999908447266 159.85400390625,-82.70999908447266 C159.85400390625,-82.70999908447266 154.0399932861328,-88.5260009765625 154.0399932861328,-88.5260009765625 C154.0399932861328,-88.5260009765625 143.76699829101562,-78.25 143.76699829101562,-78.25 C143.76699829101562,-78.25 133.49099731445312,-88.52400207519531 133.49099731445312,-88.52400207519531 C133.49099731445312,-88.52400207519531 127.677001953125,-82.70800018310547 127.677001953125,-82.70800018310547 C127.677001953125,-82.70800018310547 137.9530029296875,-72.43399810791016 137.9530029296875,-72.43399810791016 C137.9530029296875,-72.43399810791016 127.677001953125,-62.15800094604492 127.677001953125,-62.15800094604492 C127.677001953125,-62.15800094604492 133.4929962158203,-56.34400177001953 133.4929962158203,-56.34400177001953 C133.4929962158203,-56.34400177001953 143.76699829101562,-66.61900329589844 143.76699829101562,-66.61900329589844 C143.76699829101562,-66.61900329589844 154.04299926757812,-56.34600067138672 154.04299926757812,-56.34600067138672 C154.04299926757812,-56.34600067138672 159.8560028076172,-62.15999984741211 159.8560028076172,-62.15999984741211 C159.8560028076172,-62.15999984741211 149.5800018310547,-72.43399810791016 149.5800018310547,-72.43399810791016z"></path></g><g opacity="1" transform="matrix(0.8199341297149658,0,0,0.8199341297149658,-20.257408142089844,-0.5401976108551025)"><path fill="rgb(255,90,114)" fill-opacity="1" d=" M-105.46199798583984,-2.3269999027252197 C-105.46199798583984,-2.3269999027252197 -95.18900299072266,-12.60200023651123 -95.18900299072266,-12.60200023651123 C-95.18900299072266,-12.60200023651123 -101.00199890136719,-18.417999267578125 -101.00199890136719,-18.417999267578125 C-101.00199890136719,-18.417999267578125 -111.2760009765625,-8.142999649047852 -111.2760009765625,-8.142999649047852 C-111.2760009765625,-8.142999649047852 -121.552001953125,-18.415000915527344 -121.552001953125,-18.415000915527344 C-121.552001953125,-18.415000915527344 -127.36499786376953,-12.598999977111816 -127.36499786376953,-12.598999977111816 C-127.36499786376953,-12.598999977111816 -117.08899688720703,-2.3269999027252197 -117.08899688720703,-2.3269999027252197 C-117.08899688720703,-2.3269999027252197 -127.36499786376953,7.948999881744385 -127.36499786376953,7.948999881744385 C-127.36499786376953,7.948999881744385 -121.55000305175781,13.763999938964844 -121.55000305175781,13.763999938964844 C-121.55000305175781,13.763999938964844 -111.2760009765625,3.48799991607666 -111.2760009765625,3.48799991607666 C-111.2760009765625,3.48799991607666 -101,13.76099967956543 -101,13.76099967956543 C-101,13.76099967956543 -95.18599700927734,7.947000026702881 -95.18599700927734,7.947000026702881 C-95.18599700927734,7.947000026702881 -105.46199798583984,-2.3269999027252197 -105.46199798583984,-2.3269999027252197z"></path></g></g><g transform="matrix(1,0,0,1,330,299)" opacity="1" style="display: block;"><g opacity="1" transform="matrix(0.03222348913550377,0.999480664730072,-0.999480664730072,0.03222348913550377,288.6405029296875,-59.22455596923828)"><g opacity="1" transform="matrix(1,0,0,1,0,0)"><path fill="rgb(206,211,248)" fill-opacity="1" d=" M261.75799560546875,171.88600158691406 C263.60198974609375,172.8679962158203 264.302001953125,175.15899658203125 263.32000732421875,177.0030059814453 C262.3380126953125,178.8470001220703 260.0469970703125,179.5469970703125 258.2030029296875,178.56500244140625 C258.2030029296875,178.56500244140625 234.31500244140625,165.8509979248047 234.31500244140625,165.8509979248047 C234.31500244140625,165.8509979248047 237.8699951171875,159.1719970703125 237.8699951171875,159.1719970703125 C237.8699951171875,159.1719970703125 261.75799560546875,171.88600158691406 261.75799560546875,171.88600158691406z"></path></g><g opacity="1" transform="matrix(1,0,0,1,0,0)"><path fill="rgb(206,211,248)" fill-opacity="1" d=" M245.92100524902344,201.64100646972656 C247.76499938964844,202.6230010986328 250.05599975585938,201.92300415039062 251.03799438476562,200.07899475097656 C252.02000427246094,198.23500061035156 251.32000732421875,195.94500732421875 249.4759979248047,194.96299743652344 C249.4759979248047,194.96299743652344 225.58799743652344,182.24899291992188 225.58799743652344,182.24899291992188 C225.58799743652344,182.24899291992188 222.0330047607422,188.927001953125 222.0330047607422,188.927001953125 C222.0330047607422,188.927001953125 245.92100524902344,201.64100646972656 245.92100524902344,201.64100646972656z"></path></g><g opacity="1" transform="matrix(1,0,0,1,0,0)"><path fill="rgb(32,25,111)" fill-opacity="1" d=" M233.34800720214844,175.85699462890625 C224.6199951171875,192.25599670410156 215.0449981689453,204.2209930419922 211.96299743652344,202.58099365234375 C211.96299743652344,202.58099365234375 206.3820037841797,199.61000061035156 206.3820037841797,199.61000061035156 C206.3820037841797,199.61000061035156 222.18600463867188,169.91700744628906 222.18600463867188,169.91700744628906 C222.18600463867188,169.91700744628906 233.34800720214844,175.85699462890625 233.34800720214844,175.85699462890625z"></path></g><g opacity="1" transform="matrix(1,0,0,1,0,0)"><path fill="rgb(54,46,148)" fill-opacity="1" d=" M237.99000549316406,140.22300720214844 C237.99000549316406,140.22300720214844 243.5709991455078,143.1929931640625 243.5709991455078,143.1929931640625 C246.6529998779297,144.83299255371094 242.0760040283203,159.45799255371094 233.34800720214844,175.85699462890625 C233.34800720214844,175.85699462890625 222.18600463867188,169.91700744628906 222.18600463867188,169.91700744628906 C222.18600463867188,169.91700744628906 237.99000549316406,140.22300720214844 237.99000549316406,140.22300720214844z"></path></g><g opacity="1" transform="matrix(1,0,0,1,0,0)"><path fill="rgb(66,62,175)" fill-opacity="1" d=" M227.76699829101562,172.88699340820312 C236.4949951171875,156.48800659179688 241.07200622558594,141.86399841308594 237.99000549316406,140.22300720214844 C234.9080047607422,138.58299255371094 225.33299255371094,150.5469970703125 216.60499572753906,166.9459991455078 C207.8769989013672,183.34500122070312 203.3000030517578,197.968994140625 206.3820037841797,199.61000061035156 C209.46400451660156,201.25100708007812 219.03900146484375,189.28599548339844 227.76699829101562,172.88699340820312z"></path></g><g opacity="1" transform="matrix(1,0,0,1,0,0)"><path fill="rgb(107,103,233)" fill-opacity="1" d=" M205.7030029296875,128.1820068359375 C205.7030029296875,128.1820068359375 236.17300415039062,144.3990020751953 236.17300415039062,144.3990020751953 C238.53700256347656,145.65699768066406 234.33299255371094,158.177001953125 226.7830047607422,172.36300659179688 C219.23300170898438,186.5489959716797 211.19500732421875,197.0279998779297 208.83099365234375,195.77000427246094 C208.83099365234375,195.77000427246094 178.36099243164062,179.55299377441406 178.36099243164062,179.55299377441406 C168.83599853515625,174.48300170898438 167.23500061035156,158.87399291992188 174.78500366210938,144.68800354003906 C182.3350067138672,130.5019989013672 196.17799377441406,123.11199951171875 205.7030029296875,128.1820068359375z"></path></g><g opacity="1" transform="matrix(1,0,0,1,0,0)"><path fill="rgb(86,82,204)" fill-opacity="1" d=" M174.13999938964844,176.0290069580078 C171.4290008544922,172.2259979248047 170.97300720214844,166.55999755859375 174.13900756835938,159.66099548339844 C179.05299377441406,148.95199584960938 191.96099853515625,153.8300018310547 196.03700256347656,155.99899291992188 C200.11300659179688,158.16799926757812 220.781005859375,169.16900634765625 226.7830047607422,172.36300659179688 C219.23300170898438,186.5489959716797 211.19500732421875,197.0279998779297 208.83099365234375,195.77000427246094 C208.83099365234375,195.77000427246094 178.36099243164062,179.55299377441406 178.36099243164062,179.55299377441406 C178.02499389648438,179.37399291992188 177.7209930419922,179.18499755859375 177.41700744628906,178.99600219726562 C176.16799926757812,178.1929931640625 175.0780029296875,177.1909942626953 174.13999938964844,176.0290069580078z"></path></g></g><g opacity="1" transform="matrix(1,0,0,1,0,0)"><path stroke-linecap="round" stroke-linejoin="round" fill-opacity="0" stroke="rgb(66,62,175)" stroke-opacity="1" stroke-width="4" d=" M147.8488006591797,127.4127426147461 C156.38465881347656,119.53219604492188 165.33401489257812,79.1794204711914 151.06793212890625,36.258541107177734 C147.20709228515625,-11.425880432128906 287.23199462890625,7.854000091552734 276.1080017089844,-42.25699996948242"></path></g><g opacity="1" transform="matrix(0.9737240076065063,-0.227731391787529,0.227731391787529,0.9737240076065063,-56.002723693847656,-24.349945068359375)"><g opacity="1" transform="matrix(1,0,0,1,0,0)"><path fill="rgb(86,82,204)" fill-opacity="1" d=" M-28.36199951171875,144.35800170898438 C-28.36199951171875,144.35800170898438 12.574999809265137,132.46200561523438 12.574999809265137,132.46200561523438 C15.307999610900879,131.66799926757812 21.38599967956543,144.3179931640625 26.152000427246094,160.7169952392578 C30.917999267578125,177.11599731445312 32.564998626708984,191.0540008544922 29.832000732421875,191.84800720214844 C29.832000732421875,191.84800720214844 -11.104000091552734,203.74400329589844 -11.104000091552734,203.74400329589844 C-22.114999771118164,206.94400024414062 -34.90599822998047,196.2429962158203 -39.67100143432617,179.843994140625 C-44.4370002746582,163.44500732421875 -39.37300109863281,147.55799865722656 -28.36199951171875,144.35800170898438z"></path></g><g opacity="1" transform="matrix(1,0,0,1,0,0)"><path fill="rgb(66,62,175)" fill-opacity="1" d=" M-11.104000091552734,203.74400329589844 C-11.104000091552734,203.74400329589844 29.832000732421875,191.84800720214844 29.832000732421875,191.84800720214844 C32.564998626708984,191.0540008544922 30.917999267578125,177.11599731445312 26.152000427246094,160.7169952392578 C25.95800018310547,160.05099487304688 25.76300048828125,159.39300537109375 25.565000534057617,158.74000549316406 C25.565000534057617,158.74000549316406 19.347000122070312,160.57899475097656 19.347000122070312,160.57899475097656 C10.579000473022461,163.41099548339844 -11.493000030517578,170.0279998779297 -16.913999557495117,171.8070068359375 C-31.40399932861328,176.56300354003906 -33.88999938964844,200.60499572753906 -13.17300033569336,204.17999267578125 C-12.477999687194824,204.08599853515625 -11.788000106811523,203.9429931640625 -11.104000091552734,203.74400329589844z"></path></g><g opacity="1" transform="matrix(1,0,0,1,0,0)"><path fill="rgb(32,25,111)" fill-opacity="1" d=" M14.38700008392334,164.13600158691406 C19.895999908447266,183.093994140625 27.25,197.6219940185547 30.812999725341797,196.58700561523438 C30.812999725341797,196.58700561523438 37.26499938964844,194.71299743652344 37.26499938964844,194.71299743652344 C37.26499938964844,194.71299743652344 27.290000915527344,160.38600158691406 27.290000915527344,160.38600158691406 C27.290000915527344,160.38600158691406 14.38700008392334,164.13600158691406 14.38700008392334,164.13600158691406z"></path></g><g opacity="1" transform="matrix(1,0,0,1,0,0)"><path fill="rgb(54,46,148)" fill-opacity="1" d=" M17.315000534057617,126.05999755859375 C17.315000534057617,126.05999755859375 10.86299991607666,127.93399810791016 10.86299991607666,127.93399810791016 C7.300000190734863,128.968994140625 8.878000259399414,145.17799377441406 14.38700008392334,164.13600158691406 C14.38700008392334,164.13600158691406 27.290000915527344,160.38600158691406 27.290000915527344,160.38600158691406 C27.290000915527344,160.38600158691406 17.315000534057617,126.05999755859375 17.315000534057617,126.05999755859375z"></path></g><g opacity="1" transform="matrix(1,0,0,1,0,0)"><path fill="rgb(107,103,233)" fill-opacity="1" d=" M20.83799934387207,162.26100158691406 C15.329000473022461,143.30299377441406 13.751999855041504,127.09500122070312 17.315000534057617,126.05999755859375 C20.878000259399414,125.02400207519531 28.23200035095215,139.55299377441406 33.74100112915039,158.51100158691406 C39.25,177.468994140625 40.827999114990234,193.677001953125 37.26499938964844,194.71299743652344 C33.70199966430664,195.7480010986328 26.347000122070312,181.218994140625 20.83799934387207,162.26100158691406z"></path></g><g opacity="1" transform="matrix(1,0,0,1,0,0)"><path fill="rgb(19,17,71)" fill-opacity="1" d=" M22.4060001373291,147.68099975585938 C21.663000106811523,145.125 21.55299949645996,142.91000366210938 22.15999984741211,142.73399353027344 C22.767000198364258,142.55799865722656 23.861000061035156,144.48699951171875 24.604000091552734,147.04299926757812 C25.347000122070312,149.5989990234375 25.457000732421875,151.81399536132812 24.850000381469727,151.99000549316406 C24.243000030517578,152.16600036621094 23.14900016784668,150.23699951171875 22.4060001373291,147.68099975585938z"></path></g><g opacity="1" transform="matrix(1,0,0,1,0,0)"><path fill="rgb(19,17,71)" fill-opacity="1" d=" M29.97599983215332,173.72900390625 C30.7189998626709,176.28500366210938 31.812000274658203,178.21400451660156 32.41899871826172,178.03799438476562 C33.0260009765625,177.86199951171875 32.91600036621094,175.64700317382812 32.17300033569336,173.09100341796875 C31.43000030517578,170.53500366210938 30.336999893188477,168.6060028076172 29.729999542236328,168.78199768066406 C29.12299919128418,168.95799255371094 29.232999801635742,171.17300415039062 29.97599983215332,173.72900390625z"></path></g><g opacity="1" transform="matrix(1,0,0,1,0,0)"><path fill="rgb(19,17,71)" fill-opacity="1" d=" M22.722999572753906,161.03799438476562 C22.722999572753906,161.03799438476562 24.81800079345703,160.4290008544922 24.81800079345703,160.4290008544922 C24.81800079345703,160.4290008544922 25.179000854492188,161.6750030517578 25.179000854492188,161.6750030517578 C25.179000854492188,161.6750030517578 23.084999084472656,162.2830047607422 23.084999084472656,162.2830047607422 C23.084999084472656,162.2830047607422 22.722999572753906,161.03799438476562 22.722999572753906,161.03799438476562z"></path></g></g></g><g transform="matrix(0.9990161061286926,0.04434835910797119,-0.04434835910797119,0.9990161061286926,330,299)" opacity="1" style="display: block;"><g opacity="1" transform="matrix(1,0,0,1,0,0)"><path fill="rgb(86,82,204)" fill-opacity="1" d=" M120.74299621582031,-279.6929931640625 C120.74299621582031,-279.6929931640625 109.52999877929688,-277.4159851074219 109.52999877929688,-277.4159851074219 C108.65299987792969,-277.2380065917969 107.93599700927734,-276.60699462890625 107.65299987792969,-275.75799560546875 C107.65299987792969,-275.75799560546875 104.01599884033203,-264.9079895019531 104.01599884033203,-264.9079895019531 C103.73200225830078,-264.0589904785156 103.91999816894531,-263.12298583984375 104.51399993896484,-262.4530029296875 C104.51399993896484,-262.4530029296875 112.09400177001953,-253.8780059814453 112.09400177001953,-253.8780059814453 C112.68599700927734,-253.20799255371094 113.58999633789062,-252.9040069580078 114.46700286865234,-253.08299255371094 C114.46700286865234,-253.08299255371094 125.68199920654297,-255.35899353027344 125.68199920654297,-255.35899353027344 C126.55899810791016,-255.53700256347656 127.27400207519531,-256.16900634765625 127.55899810791016,-257.0169982910156 C127.55899810791016,-257.0169982910156 131.1959991455078,-267.8689880371094 131.1959991455078,-267.8689880371094 C131.47900390625,-268.7170104980469 131.2899932861328,-269.6520080566406 130.697998046875,-270.322998046875 C130.697998046875,-270.322998046875 123.11699676513672,-278.89801025390625 123.11699676513672,-278.89801025390625 C122.5250015258789,-279.5679931640625 121.62000274658203,-279.8710021972656 120.74299621582031,-279.6929931640625z"></path></g><g opacity="1" transform="matrix(1,0,0,1,0,0)"><path fill="rgb(128,125,251)" fill-opacity="1" d=" M239.8159942626953,147.57400512695312 C239.8159942626953,147.57400512695312 244.62899780273438,164.71499633789062 244.62899780273438,164.71499633789062 C245.14999389648438,166.5709991455078 247.48500061035156,167.16600036621094 248.83200073242188,165.78599548339844 C248.83200073242188,165.78599548339844 261.2699890136719,153.0489959716797 261.2699890136719,153.0489959716797 C262.6180114746094,151.66900634765625 261.96600341796875,149.35000610351562 260.0979919433594,148.8730010986328 C260.0979919433594,148.8730010986328 242.8470001220703,144.47000122070312 242.8470001220703,144.47000122070312 C240.97900390625,143.9929962158203 239.29400634765625,145.7169952392578 239.8159942626953,147.57400512695312z"></path></g><g opacity="1" transform="matrix(1,0,0,1,0,0)"><path fill="rgb(255,208,62)" fill-opacity="1" d=" M-283.4570007324219,-145.447998046875 C-283.4570007324219,-145.447998046875 -295.6189880371094,-132.447998046875 -295.6189880371094,-132.447998046875 C-296.93701171875,-131.04100036621094 -296.2359924316406,-128.73399353027344 -294.35699462890625,-128.29800415039062 C-294.35699462890625,-128.29800415039062 -277.01800537109375,-124.26599884033203 -277.01800537109375,-124.26599884033203 C-275.1390075683594,-123.83000183105469 -273.4930114746094,-125.58899688720703 -274.0530090332031,-127.43399810791016 C-274.0530090332031,-127.43399810791016 -279.23199462890625,-144.46600341796875 -279.23199462890625,-144.46600341796875 C-279.7919921875,-146.31300354003906 -282.1400146484375,-146.85699462890625 -283.4570007324219,-145.447998046875z"></path></g></g><g transform="matrix(0.8100000023841858,0,0,0.8100000023841858,242.9421844482422,286.5992431640625)" opacity="1" style="display: block;"><g opacity="1" transform="matrix(1,0,0.0014155698008835316,1,-0.40343475341796875,0)"><g opacity="1" transform="matrix(1,0,0,1,0,0)"><g opacity="1" transform="matrix(1,0,0,1,0,0)"><path fill="rgb(247,211,201)" fill-opacity="1" d=" M-86.19100189208984,267.22100830078125 C-86.19100189208984,265.0660095214844 -86.19100189208984,263.3110046386719 -86.19100189208984,263.3110046386719 C-86.19100189208984,263.3110046386719 -75.50599670410156,263.3110046386719 -75.50599670410156,263.3110046386719 C-75.36799621582031,266.9549865722656 -74.69100189208984,268.9079895019531 -74.27999877929688,270.4209899902344 C-77.05899810791016,271.4880065917969 -81.1240005493164,268.73199462890625 -86.19100189208984,267.22100830078125z"></path></g><g opacity="1" transform="matrix(1,0,0,1,0,0)"><path fill="rgb(32,25,111)" fill-opacity="1" d=" M-86.19100189208984,267.22100830078125 C-81.1240005493164,268.73199462890625 -77.05899810791016,271.4880065917969 -74.27999877929688,270.4209899902344 C-72.80899810791016,271.4880065917969 -51.13800048828125,279.2820129394531 -48.93199920654297,280.7919921875 C-46.67499923706055,282.3370056152344 -47.00600051879883,284.7330017089844 -49.39500045776367,284.7330017089844 C-52.888999938964844,284.7330017089844 -81.66300201416016,283.4670104980469 -81.66300201416016,283.4670104980469 C-82.24800109863281,284.1000061035156 -82.72100067138672,284.7330017089844 -82.72100067138672,284.7330017089844 C-82.72100067138672,284.7330017089844 -89.2959976196289,284.7330017089844 -89.2959976196289,284.7330017089844 C-91.25700378417969,281.3330078125 -90.72699737548828,271.1310119628906 -86.19100189208984,267.22100830078125z"></path></g></g><g opacity="1" transform="matrix(1,0,0,1,0,0)"><g opacity="1" transform="matrix(1,0,0,1,0,0)"><path fill="rgb(247,211,201)" fill-opacity="1" d=" M-156.00399780273438,267.22100830078125 C-156.00399780273438,265.0660095214844 -156.00399780273438,263.3110046386719 -156.00399780273438,263.3110046386719 C-156.00399780273438,263.3110046386719 -145.3179931640625,263.3110046386719 -145.3179931640625,263.3110046386719 C-145.17999267578125,266.9549865722656 -144.5030059814453,268.9079895019531 -144.09300231933594,270.4209899902344 C-146.8719940185547,271.4880065917969 -150.93699645996094,268.73199462890625 -156.00399780273438,267.22100830078125z"></path></g><g opacity="1" transform="matrix(1,0,0,1,0,0)"><path fill="rgb(32,25,111)" fill-opacity="1" d=" M-156.00399780273438,267.22100830078125 C-150.93699645996094,268.73199462890625 -146.8719940185547,271.4880065917969 -144.09300231933594,270.4209899902344 C-142.6219940185547,271.4880065917969 -120.95099639892578,279.2820129394531 -118.74500274658203,280.7919921875 C-116.48799896240234,282.3370056152344 -116.81800079345703,284.7330017089844 -119.20800018310547,284.7330017089844 C-122.70099639892578,284.7330017089844 -151.4759979248047,283.4670104980469 -151.4759979248047,283.4670104980469 C-152.05999755859375,284.1000061035156 -152.53399658203125,284.7330017089844 -152.53399658203125,284.7330017089844 C-152.53399658203125,284.7330017089844 -159.10899353027344,284.7330017089844 -159.10899353027344,284.7330017089844 C-161.0709991455078,281.3330078125 -160.53900146484375,271.1310119628906 -156.00399780273438,267.22100830078125z"></path></g></g><g opacity="1" transform="matrix(1,0,0,1,0,0)"><path fill="rgb(66,62,175)" fill-opacity="1" d=" M-149.1479949951172,42.54600143432617 C-154.45599365234375,62.05099868774414 -158.87899780273438,239.69000244140625 -158.87899780273438,263.3110046386719 C-154.45599365234375,263.3110046386719 -142.29200744628906,263.3110046386719 -142.29200744628906,263.3110046386719 C-139.8820037841797,249.14500427246094 -121.2020034790039,133.76300048828125 -117.22100067138672,106.76200103759766 C-122.52899932861328,80.2040023803711 -149.1479949951172,42.54600143432617 -149.1479949951172,42.54600143432617z"></path></g><g opacity="1" transform="matrix(1,0,0,1,0,0)"><path fill="rgb(86,82,204)" fill-opacity="1" d=" M-79.25900268554688,42.54600143432617 C-76.6050033569336,63.81999969482422 -72.62699890136719,229.07400512695312 -72.62699890136719,263.3110046386719 C-77.49199676513672,263.3110046386719 -90.08300018310547,263.3110046386719 -90.08300018310547,263.3110046386719 C-92.44200134277344,241.12899780273438 -114.552001953125,134.3520050048828 -129.4250030517578,106.76200103759766 C-140.0570068359375,87.03900146484375 -152.38099670410156,73.46299743652344 -149.1479949951172,42.54600143432617 C-145,37 -137.99099731445312,32.196998596191406 -113.5,33.04600143432617 C-86,34 -79.25900268554688,42.54600143432617 -79.25900268554688,42.54600143432617z"></path></g><g opacity="1" transform="matrix(0.9999977350234985,-0.00212335167452693,0.00212335167452693,0.9999977350234985,-0.0862579345703125,-0.2462158203125)"><g opacity="1" transform="matrix(0.9999436140060425,0.010616566985845566,-0.010616566985845566,0.9999436140060425,-0.8080062866210938,1.2113418579101562)"><g opacity="1" transform="matrix(1,0,0,1,0,0)"><path fill="rgb(248,216,208)" fill-opacity="1" d=" M-125.31400299072266,-96.89700317382812 C-124.52300262451172,-93.13300323486328 -122.20500183105469,-79.822998046875 -123.12000274658203,-73.91000366210938 C-123.96099853515625,-68.2040023803711 -121.73899841308594,-64.10399627685547 -118.04499816894531,-63.88199996948242 C-113.87799835205078,-63.63199996948242 -104.86599731445312,-68.34400177001953 -104.49600219726562,-71.02100372314453 C-104.1259994506836,-73.697998046875 -107.60800170898438,-79.34600067138672 -105.46099853515625,-83.87300109863281 C-103.1240005493164,-88.8010025024414 -97.9520034790039,-82.88200378417969 -94.93599700927734,-90.88999938964844 C-91.41400146484375,-100.22899627685547 -91.6240005493164,-118.03900146484375 -96.28900146484375,-122.61000061035156 C-101.50800323486328,-127.72699737548828 -111.56199645996094,-133.6699981689453 -123.73600006103516,-125.05899810791016 C-133.6699981689453,-118.03500366210938 -126.91999816894531,-104.5459976196289 -125.31400299072266,-96.89700317382812z"></path></g><g opacity="1" transform="matrix(1,0,0,1,0,0)"><path fill="rgb(32,25,111)" fill-opacity="1" d=" M-100.71499633789062,-108.63500213623047 C-97.80400085449219,-108.83899688720703 -98.875,-114.03900146484375 -98.875,-116.8550033569336 C-98.875,-118.84500122070312 -96.9219970703125,-120.25199890136719 -94.7020034790039,-120.21900177001953 C-86.43900299072266,-120.09500122070312 -81.1259994506836,-131.1540069580078 -86.73400115966797,-135.14599609375 C-92.3479995727539,-139.13800048828125 -94.65699768066406,-138.197998046875 -98.71199798583984,-136.41099548339844 C-103.11399841308594,-134.4709930419922 -123.33300018310547,-135.6439971923828 -127.78299713134766,-128.81300354003906 C-131.08399963378906,-123.74400329589844 -131.39100646972656,-118.47200012207031 -131.5330047607422,-113.13200378417969 C-131.6219940185547,-109.7979965209961 -124.21600341796875,-88.34500122070312 -124.21600341796875,-88.34500122070312 C-124.21600341796875,-88.34500122070312 -108.197998046875,-89.27400207519531 -109.02799987792969,-108.4020004272461 C-109.19200134277344,-112.18599700927734 -108.33899688720703,-115.02799987792969 -106.45800018310547,-114.95600128173828 C-103.65399932861328,-114.8479995727539 -104.875,-108.33799743652344 -100.71499633789062,-108.63500213623047z"></path></g></g><g opacity="1" transform="matrix(1,0,0,1,0,0)"><g opacity="1" transform="matrix(1,0,0,1,0,0)"><path fill="rgb(248,216,208)" fill-opacity="1" d=" M-142.281005859375,-66.18099975585938 C-149.91900634765625,-51.99300003051758 -154.82699584960938,-40.500999450683594 -157.88699340820312,-30.759000778198242 C-161.4770050048828,-19.32900047302246 -162.5229949951172,-10.309000015258789 -162.44400024414062,-2.1730000972747803 C-162.3159942626953,10.944000244140625 -152.30499267578125,28.406999588012695 -147.1529998779297,36.5369987487793 C-145.36399841308594,39.36000061035156 -134.77099609375,41.284000396728516 -135.3209991455078,34.084999084472656 C-135.92100524902344,26.236000061035156 -146.30999755859375,7.111000061035156 -145.3249969482422,-2.3989999294281006 C-144.52099609375,-10.156000137329102 -142.7760009765625,-18.01300048828125 -139.41299438476562,-25.236000061035156 C-134.906005859375,-34.915000915527344 -129.3679962158203,-42.33300018310547 -126.23400115966797,-52.19599914550781 C-122.65299987792969,-63.46799850463867 -133.06199645996094,-73.66799926757812 -142.281005859375,-66.18099975585938z"></path></g><g opacity="1" transform="matrix(1,0,0,1,0,0)"><path fill="rgb(237,159,0)" fill-opacity="1" d=" M-142.281005859375,-66.18099975585938 C-149.91900634765625,-51.99300003051758 -154.82699584960938,-40.500999450683594 -157.88699340820312,-30.759000778198242 C-152.38800048828125,-28.711000442504883 -146.6840057373047,-25.951000213623047 -139.41299438476562,-25.236000061035156 C-134.906005859375,-34.915000915527344 -129.3679962158203,-42.33300018310547 -126.23400115966797,-52.19599914550781 C-122.65299987792969,-63.46799850463867 -133.06199645996094,-73.66799926757812 -142.281005859375,-66.18099975585938z"></path></g></g><g opacity="1" transform="matrix(0.9700741767883301,-0.24280884861946106,0.24280884861946106,0.9700741767883301,11.434478759765625,-23.224281311035156)"><g opacity="1" transform="matrix(0.9989147782325745,0.04657566174864769,-0.04657566174864769,0.9989147782325745,0.0236968994140625,2.9830126762390137)"><g opacity="1" transform="matrix(0.9998895525932312,-0.014862925745546818,0.014862925745546818,0.9998895525932312,0.6980476379394531,-0.5737266540527344)"><path fill="rgb(248,216,208)" fill-opacity="1" d=" M-41.902000427246094,-49.26300048828125 C-40.65800094604492,-51.862998962402344 -40.2140007019043,-58.98699951171875 -38.457000732421875,-62.832000732421875 C-35.643001556396484,-68.98899841308594 -24.326000213623047,-76.0770034790039 -22.16900062561035,-75.10199737548828 C-20.20800018310547,-74.21600341796875 -29.35194206237793,-68.93978881835938 -29.942941665649414,-66.92179107666016 C-28.015625,-65.55377197265625 -22.21299934387207,-60.099998474121094 -24.576000213623047,-56.555999755859375 C-26.93899917602539,-53.012001037597656 -28.56100082397461,-50.5359992980957 -30.847000122070312,-49.435001373291016 C-32.70600128173828,-48.540000915527344 -34.117000579833984,-45.0099983215332 -34.117000579833984,-45.0099983215332 C-34.117000579833984,-45.0099983215332 -36.75,-42.625 -39.82400131225586,-43.9900016784668 C-42.47700119018555,-45.167999267578125 -41.902000427246094,-49.26300048828125 -41.902000427246094,-49.26300048828125z"></path></g><g opacity="1" transform="matrix(1,0,0,1,0,0)"><path fill="rgb(248,216,208)" fill-opacity="1" d=" M-33.875999450683594,-45.327999114990234 C-33.875999450683594,-45.327999114990234 -41.58300018310547,-49.465999603271484 -41.58300018310547,-49.465999603271484 C-41.58300018310547,-49.465999603271484 -62.1349983215332,-21.764999389648438 -62.1349983215332,-21.764999389648438 C-62.1349983215332,-21.764999389648438 -72.20700073242188,-7.561999797821045 -71.6510009765625,1.7289999723434448 C-71.2509994506836,8.406000137329102 -64.5,13.75 -59.21799850463867,8.668999671936035 C-51.02899932861328,-3.572999954223633 -33.875999450683594,-45.327999114990234 -33.875999450683594,-45.327999114990234z"></path></g></g></g><g opacity="1" transform="matrix(1,0,0,1,0,0)"><path fill="rgb(252,186,6)" fill-opacity="1" d=" M-79.25900268554688,42.54600143432617 C-80.14399719238281,25.7810001373291 -79.7030029296875,-15.713000297546387 -79.94100189208984,-22.961999893188477 C-80.36399841308594,-35.82899856567383 -74.18000030517578,-55.82099914550781 -81.51000213623047,-63.96099853515625 C-86.51300048828125,-69.51699829101562 -91.88099670410156,-73.75800323486328 -100.09300231933594,-74.41899871826172 C-112.06999969482422,-75.38200378417969 -143.63499450683594,-81.20099639892578 -147.42100524902344,-53.262001037597656 C-151.06399536132812,-26.37700080871582 -151.802001953125,33.2140007019043 -149.1479949951172,42.54600143432617 C-144.74899291992188,42.54600143432617 -130.29400634765625,45.54600143432617 -115.5,45.54600143432617 C-97.56900024414062,45.54600143432617 -79.25900268554688,42.54600143432617 -79.25900268554688,42.54600143432617z"></path></g><g opacity="1" transform="matrix(0.9700741767883301,-0.24280884861946106,0.24280884861946106,0.9700741767883301,11.434478759765625,-23.224281311035156)"><g opacity="1" transform="matrix(1,0,0,1,0,0)"><path fill="rgb(248,216,208)" fill-opacity="1" d=" M-62.1349983215332,-21.764999389648438 C-65.65899658203125,-33.37900161743164 -70.7249984741211,-44.59199905395508 -74.08000183105469,-51.82400131225586 C-81.41500091552734,-67.63700103759766 -88.05999755859375,-70.07099914550781 -93.8740005493164,-68.08799743652344 C-99.46700286865234,-66.18099975585938 -97.05000305175781,-50.66600036621094 -95.33799743652344,-42.83700180053711 C-92.33300018310547,-29.094999313354492 -81,-7.560999870300293 -75.88600158691406,1.4140000343322754 C-71.35600280761719,9.36400032043457 -63,14.875 -58.21799850463867,7.294000148773193 C-54.125,-1.125 -56,-3.5 -62.1349983215332,-21.764999389648438z"></path></g><g opacity="1" transform="matrix(1,0,0,1,0,0)"><path fill="rgb(255,208,62)" fill-opacity="1" d=" M-68.26100158691406,-38.65599822998047 C-70.46900177001953,-43.67900085449219 -72.4260025024414,-48.25899887084961 -74.08000183105469,-51.82400131225586 C-81.41500091552734,-67.63700103759766 -88.05999755859375,-70.07099914550781 -93.8740005493164,-68.08799743652344 C-99.46700286865234,-66.18099975585938 -97.05000305175781,-50.66600036621094 -95.33799743652344,-42.83700180053711 C-94.35199737548828,-38.32600021362305 -92.46700286865234,-32.97700119018555 -90.20099639892578,-27.506999969482422 C-89.51599884033203,-25.98900032043457 -82.31400299072266,-28.41200065612793 -76.21600341796875,-31.90399932861328 C-71.9229965209961,-34.36199951171875 -67.91300201416016,-37.862998962402344 -68.26100158691406,-38.65599822998047z"></path></g></g></g></g></g></g></svg>