<svg xmlns="http://www.w3.org/2000/svg" viewBox="0 0 465.9 484.8"  width="16" height='16' class="text-open align-text-bottom">
<path d="M465.8 328l-9.9-162.3c-2.6-42-37-75.2-79-77C374.2 39.5 333 0 282.5 0s-91.8 39.4-94.3 88.8a82.5 82.5 0 00-77.6 70H92.5A82.4 82.4 0 0010 235.6L.2 398a80.7 80.7 0 0022 60.7 83.2 83.2 0 0060.4 26h200.7c22.8 0 44.8-9.4 60.4-26a80.7 80.7 0 0021.4-44h18.2c22.8 0 44.8-9.4 60.4-26a80.7 80.7 0 0022-60.7zM282.6 42a52.1 52.1 0 0152.1 46.7H230.4A52.1 52.1 0 01282.6 42zM313 430a40.5 40.5 0 01-29.8 12.8H82.6a40.5 40.5 0 01-40.5-42.3l9.8-162.3c1.3-21 19.1-37.5 40.6-37.5h15.4L100.2 328a80.7 80.7 0 0022 60.7 83.3 83.3 0 0060.4 26h139.5a39.5 39.5 0 01-9 15.2zm100-70a40.5 40.5 0 01-29.8 12.8H182.6c-11.4 0-22-4.6-29.8-12.8a39.1 39.1 0 01-10.7-29.5l9.8-162.3c1.3-21 19.1-37.5 40.6-37.5h181a40.4 40.4 0 0140.5 37.5l9.8 162.3c.7 11-3.1 21.4-10.7 29.5z"></path><path d="M297.4 327h-33.8a21 21 0 110-42h33.8a21 21 0 110 42z"></path>
</svg>