<svg xmlns="http://www.w3.org/2000/svg" viewBox="0 0 512 512" class="icon icon-xs align-text-top"><path d="M256 32c30.3 0 59.6 5.9 87.2 17.6 26.7 11.3 50.6 27.4 71.2 48s36.7 44.5 48 71.2c11.7 27.6 17.6 56.9 17.6 87.2s-5.9 59.6-17.6 87.2c-11.3 26.7-27.4 50.6-48 71.2s-44.5 36.7-71.2 48C315.6 474.1 286.3 480 256 480s-59.6-5.9-87.2-17.6c-26.7-11.3-50.6-27.4-71.2-48s-36.7-44.5-48-71.2C37.9 315.6 32 286.3 32 256s5.9-59.6 17.6-87.2c11.3-26.7 27.4-50.6 48-71.2s44.5-36.7 71.2-48C196.4 37.9 225.7 32 256 32m0-32C114.6 0 0 114.6 0 256s114.6 256 256 256 256-114.6 256-256S397.4 0 256 0z"></path><path d="M369.4 204.1c0-3.7-2.2-7.1-5.6-8.8l-103.5-51.8c-2.7-1.4-6-1.4-8.7 0l-103.4 51.7c-3.5 1.7-5.7 5.3-5.7 9.2v103.3c0 3.7 2.1 7 5.4 8.7L247 366c2 2.3 5.1 3.5 8.2 3.3 1.8.1 3.5-.2 5.1-1L364 316.5c3.3-1.6 5.4-5 5.4-8.7V204.1zM256 245.2l-31-15.5 82-41 30.9 15.5-81.9 41zm0-82l29.3 14.6-82 41-29.3-14.6 82-41zm-94 56.7l31 15.4V256c0 5.3 4.2 9.7 9.5 9.7s9.5-4.4 9.5-9.7v-10.9l33 16.2v81.9l-83-41.3v-82zm102 124.9v-81.9l86-43v81.9l-86 43z"></path></svg>